<svg width="33" height="32" viewBox="0 0 33 32" fill="none" xmlns="http://www.w3.org/2000/svg">
<path d="M2.13634 2.15513C-0.429951 4.68114 0.0952813 7.36446 0.0952813 15.5163C0.0952813 22.2858 -1.15112 29.0721 5.3721 30.6697C7.40907 31.1662 25.4575 31.1662 27.4917 30.6672C30.2077 30.0031 32.4175 27.9155 32.7196 24.2754C32.7617 23.7674 32.7617 7.2742 32.7182 6.75585C32.3971 2.87851 29.8784 0.643915 26.5596 0.191322C25.799 0.0868777 25.6466 0.0559312 21.7441 0.049484C7.90165 0.0559312 4.86728 -0.528184 2.13634 2.15513Z" fill="url(#paint0_linear)"/>
<path d="M16.4203 4.09721C11.4795 4.09721 6.78783 3.68073 4.99578 8.03892C4.25555 9.83892 4.36305 12.1766 4.36305 15.5239C4.36305 18.4612 4.26372 21.2218 4.99578 23.0076C6.78374 27.3684 11.5136 26.9506 16.4175 26.9506C21.1487 26.9506 26.0268 27.4174 27.8407 23.0076C28.5822 21.1895 28.4734 18.8867 28.4734 15.5239C28.4734 11.06 28.7333 8.17817 26.4487 6.01455C24.1355 3.82257 21.0072 4.09721 16.4148 4.09721H16.4203ZM15.3399 6.15639C25.6458 6.14091 26.9576 5.05524 26.2337 20.1374C25.9765 25.4717 21.6903 24.8863 16.4216 24.8863C6.81504 24.8863 6.53882 24.6258 6.53882 15.5187C6.53882 6.30596 7.30081 6.16154 15.3399 6.15381V6.15639ZM22.8564 8.0531C22.0577 8.0531 21.41 8.66685 21.41 9.42373C21.41 10.1806 22.0577 10.7944 22.8564 10.7944C23.6551 10.7944 24.3028 10.1806 24.3028 9.42373C24.3028 8.66685 23.6551 8.0531 22.8564 8.0531ZM16.4203 9.65583C13.0008 9.65583 10.2291 12.2836 10.2291 15.5239C10.2291 18.7642 13.0008 21.3907 16.4203 21.3907C19.8397 21.3907 22.6101 18.7642 22.6101 15.5239C22.6101 12.2836 19.8397 9.65583 16.4203 9.65583ZM16.4203 11.715C21.7338 11.715 21.7406 19.3328 16.4203 19.3328C11.1081 19.3328 11.0999 11.715 16.4203 11.715Z" fill="white"/>
<defs>
<linearGradient id="paint0_linear" x1="2.19896" y1="29.0194" x2="31.142" y2="2.58495" gradientUnits="userSpaceOnUse">
<stop stop-color="#FFDD55"/>
<stop offset="0.5" stop-color="#FF543E"/>
<stop offset="1" stop-color="#C837AB"/>
</linearGradient>
</defs>
</svg>
