<svg width="46" height="31" viewBox="0 0 46 31" fill="none" xmlns="http://www.w3.org/2000/svg">
<path d="M44.9838 5.06874C44.7199 4.14476 44.2052 3.3024 43.491 2.62554C42.7767 1.94868 41.8878 1.46093 40.9128 1.21087C37.3431 0.28833 22.9765 0.28833 22.9765 0.28833C22.9765 0.28833 8.60916 0.316255 5.03951 1.23879C4.06445 1.48887 3.17553 1.97664 2.46128 2.65354C1.74702 3.33043 1.23236 4.17282 0.968543 5.09683C-0.111191 11.1071 -0.53004 20.2654 0.998192 26.0353C1.26204 26.9592 1.77671 27.8016 2.49096 28.4785C3.20521 29.1553 4.09412 29.6431 5.06916 29.8931C8.63881 30.8157 23.0058 30.8157 23.0058 30.8157C23.0058 30.8157 37.3726 30.8157 40.9421 29.8931C41.9172 29.6431 42.8061 29.1554 43.5204 28.4785C44.2347 27.8016 44.7494 26.9593 45.0132 26.0353C46.1521 20.0165 46.503 10.864 44.9838 5.06891V5.06874Z" fill="#FF0000"/>
<path d="M18.4036 22.093L30.322 15.5518L18.4038 9.0105L18.4036 22.093Z" fill="white"/>
</svg>
